<?xml version="1.0" encoding="UTF-8"?>
<svg version="1.1" viewBox="0 0 1600 1600" width="1280" height="1280" xmlns="http://www.w3.org/2000/svg">
<path transform="translate(0)" d="m0 0h1600v1600h-1600z" fill="#FDF2E7"/>
<path transform="translate(994,222)" d="m0 0 43 12 57 16 49 14 50 14 42 12 5 2 1 2v106l-1 201-1 51-1 86 1 88 1 60 1 95v168l1 86 1 39 1 10v9l-23 7-25 6-64 13-61 13-39 9-23 5-15 1-1-12v-238l1-147z" fill="#990350"/>
<path transform="translate(235,1122)" d="m0 0h10l13 1 12 4 8 2 9 3 20 7 38 13 28 10 24 9 27 9 42 15 21 8 64 23 24 8 40 14 31 11 47 15 37 13 41 13 41 14 34 13 50 17 17 6 48 17 16 5h19l43-10 48-11 85-18 49-11 28-6h9l16 5 15 5 54 17 53 16 27 7 8 4-4 4-25 10-25 8-47 15-43 14-36 12-37 12-68 22-115 36-24 8-9 2-9-1-19-8-8-4-12-4-15-7-25-11-14-7-60-27-18-8-41-18-15-6-11-5-29-12-31-13-28-12-36-15-30-13-26-11-42-18-32-14-56-24-25-11-15-6-11-5-65-27-42-18-30-13-39-17-65-30-14-7-3-3 9-3 21-4 33-4 38-4z" fill="#990350"/>
<path transform="translate(969,213)" d="m0 0 1 4v40l-1 173v690l1 197 1 24-6-1-19-7-41-14-13-5-3-4-1-4-1-107v-415l1-403 1-125 2-7 5-4 28-13 25-11z" fill="#990350"/>
<path transform="translate(888,252)" d="m0 0h1v129l-1 403v415l1 107 3 7 13 5 44 15 18 7 4 1-1-5v-102l1-44 3-13 2 3 2 6 3 20 2 5 4-6 4 10 2 56 1 76 20-3 48-11 51-11 63-13h9l2-1 15-2 11-1 7 3 2 6 3 3-3 5-5 2-73 16-57 12-53 12-30 7-8 2h-19l-36-12-31-11-70-24-23-9-28-10-43-14-72-24-43-14-30-11-35-12-1-2-9-3v-1l-5-1-3-5-1-5-15-2-21-7-12-6-1 1v4l-7-2-4-3-4-4 1-3 7 2-9-6-3-3 1-3 14 1-1-32-1-7v-9l1-8 1-3 2-14 5 3 3 3 6 24 1 31v18l8 1 15 6 15 4 8 4v2h6l1-59 1-16-1-2v-12l-2-48 1-47 1-4 5-1 5-5h3l1 3 1 19 1 53 1 6 1 55 2 56 3 11h6l21 8 24 8 3 2 5 1 1-42v-41l2-12v-7l3-17 3-7 3-3 4 1 2 3 1 20 2 7v58l-2 23v8l1 3v8l-1 3 6 2 6 3v2h11l42 14v3l10 1 17 4 18 6 9 2 36 12 29 10-2-21-1-24-2-31-1-26v-721l1-64 2-79 2-49 1-2 1-14h8l2 1h6l10-5 8-11 4 1z" fill="#F3FCEC"/>
<path transform="translate(377,382)" d="m0 0 8 1 20 4 34 9 11 3 9 3 3 5-5 5h-2v2l-10 3-11 2-16 6-14 4-6 1h-9l1-11 1-15h-2v2h-2l-1-7-2 1-3 16-1 12 3-1-2 4-2 5-1 27-1 44-1 75v346l2 119 1 42 3 46v9l-8-1-10-5-24-7-15-5-11-5-15-5-10-3-6-4-2-4h-2v-509l-1-97v-60l1-12 7-6 19-9 22-10 15-7 20-9 9-3z" fill="#990350"/>
<path transform="translate(845,268)" d="m0 0h4v16l-2 49-2 79-1 64v721l2 46 1 11 1 24 1 11v10l-5-1-36-12-32-11-3-2 1-4v-865l1-108 8-4 28-11 25-10z" fill="#990350"/>
<path transform="translate(732,314)" d="m0 0 3 1 1 359v418l-1 37-1 85v48l-7-1-51-17-3-3-1-20v-884l8-4 34-13z" fill="#990350"/>
<path transform="translate(644,349)" d="m0 0 4 1-4 23-1 22-1 91v630l2 69 1 17v32l-7-1-35-12-13-5-3-5-2-9-2-70-2-74v-440l2-113 3-133 14-7 25-10z" fill="#990350"/>
<path transform="translate(559,382)" d="m0 0 3 1v52l-1 117v506l2 91v53l-1 4-7-1-9-4-14-4-16-6-3-2-1-7-1-38v-743l17-8 28-10z" fill="#990350"/>
<path transform="translate(575,1012)" d="m0 0 2 1 1 3 1 19 1 53 1 6 1 55 2 56 3 11h6l21 8 24 8 3 2 5 1 1-42v-41l2-12v-7l3-17 3-7 3-3 4 1 2 3 1 20 2 7v58l-2 23v8l1 3v8l-1 3 6 2 6 3v2h11l42 14v3l10 1 17 4 18 6 9 2 36 12 29 10-2-21-1-24v-40l3-25 3-15h2l3 3 3-11 8-16 6-9 4-20 1-1 1-17 2-12 3-1v-11h1l1 231h3l4 4 14 5 41 14 18 7 4 1-1-5v-102l1-44 3-13 2 3 2 6 3 20 2 5 4-6 4 10 2 56 1 76 20-3 48-11 51-11 63-13h9l2-1 15-2 11-1 7 3 2 6 3 3-3 5-5 2-73 16-57 12-53 12-30 7-8 2h-19l-36-12-31-11-70-24-23-9-28-10-43-14-72-24-43-14-30-11-35-12-1-2-9-3v-1l-5-1-3-5-1-5-15-2-21-7-12-6-1 1v4l-7-2-4-3-4-4 1-3 7 2-9-6-3-3 1-3 14 1-1-32-1-7v-9l1-8 1-3 2-14 5 3 3 3 6 24 1 31v18l8 1 15 6 15 4 8 4v2h6l1-59 1-16-1-2v-12l-2-48 1-47 1-4 5-1 5-5z" fill="#FDFDFA"/>
<path transform="translate(491,408)" d="m0 0 2 2-2 12v701l2 42 1 18-8-1-19-7-17-8-2-2-1-15v-63l1-38v-377l-1-138v-27l1-75 3-6 11-8 10-4 17-5z" fill="#9A0450"/>
<path transform="translate(993,212)" d="m0 0h7l20 5 14 4 17 5 25 7 14 4 21 5 26 7 20 6 15 5 21 6 6 2v1l-11-1-9-2-16-5-21-5-10-2-11-3-4-2h-6l5 2 8 2 13 4 3 3 13 4 7 1-3 2h-7l-88-25-29-8-36-10-2-1v727l-2 321h-1l-1-35-1-21-3-9-3 6-3-3-3-15-2-11-1-3-1 1-2 9-1 44-1 83h-1l-1-197v-690l1-184 1-6h2l2-9-3-6v-3h2l2-5 2-2h6z" fill="#F4FDED"/>
<path transform="translate(427,437)" d="m0 0h4v25l-2 254v218l1 111v110l-1 6-7-1-20-9-3-3-1-7-2-45-2-127-2-71-1-190v-78l2-106v-78l7-3z" fill="#9A0450"/>
<path transform="translate(644,366)" d="m0 0h1v96h2l1 6h2l1 13 7-1 4 6 2-4 2 2 2-3 2-9 1-57 1-31h1v837l1 22 11 3v1h-8v-2l-6-2-6-3v-11l-1-4v-10l2-20v-58l-2-9-1-18-2-3-4 1-3 5-2 7-2 15-1 12-1 5v42l-1 42-6-1 4-1-1-32-2-46-1-40v-630l1-91 1-22z" fill="#DAFCD1"/>
<path transform="translate(774,297)" d="m0 0h1v972l-1 4 5 2-4 1-18-6-17-4-10-2v-2h4l-1-7v-41l1-85 1-37v-705h1l1 17v20l1 37 1 4v14l2 9 2 15v15h2v6h-2v8l-1 14-1 11-3 9 1 8v17l-1 5 2 19 1 7v14l1 3 1-1v-21l2-9 4-3 3 16 1 14 3 14 1 14 3 21 3 46 1 21 1 6 2 45 1 48-1 3v36l-1 72-2 89-1 18-2 16-1 3-2 16-2 11-4 10-2 7-2 10-4 6-3 14-1 5-2 7-1 12v17l1 9 4-10 6-3 3-9h2l1 7 3 7 2 8v4h2l-2-8v-7l2-4 1-6 2 3h4l2 6 1 16 1-115 1-735z" fill="#E3FEDE"/>
<path transform="translate(773,297)" d="m0 0h1v68l-1 735-1 143h-1l-1-14v-22l-2-12-1-2-4 1-2 8h-1l1 13h-2l-4-15-2-5v-6h-2l-2 9-2 2-5 2-3 10-1 3h-1l-1-19v-11l2-17 2-3 1-7 2-11 5-8 2-13 5-11 1-8 2-9 1-11 2-12 1-7 1-18 2-89 1-90v-18l1-7-1-44-2-45-1-6-3-49-2-28-3-21-1-10-2-8-2-22-2-7-3 4-1 7v21l-2 2-2-4v-14l-2-19-1-9 1-3v-17l-1-9 3-8 1-16 2-17h2v-6h-2l-1-15-3-19-1-6v-13l-1-4-1-38v-19l-1-17v-41l1-27 3-1 1-4 2-3 9-2 10-4 7-6z" fill="#F4FDED"/>
<path transform="translate(378,444)" d="m0 0h1l1 29-1 15h2v-5l1-5 1-13 1-19h2l1 63 1 27-1 2 2 1 2 13 2-104h1v76l-2 106v103l1 165 2 71 2 127 2 45 1 9 6 2 19 8 4 1 1-90h1v97l4 4 9 1 4-5 2 2 1 4 8 2-1 4 10-2-12-6v-2l-4-1-2-2 5 1 19 9 15 5 5 1-4 2-10-1 2 4 9 6 2 2-4-1-5-1v2l7 6 7 3-1-7 16 8 19 6 15 2 2 3 1 5 1 3h6l2 2 7 3-3 1-38-13-18-7-23-8-18-7-74-26-36-13-37-13-27-9-13-4-3-2-16-4-2-1-13-1h-10l-9 2-49 5-26 4-4-1 25-5 35-5 20-3 5-2h16l14 2 3 1h11l5 2v2l6-4-1-2-4-3-2-7h-2l-3-5 1-15 1-114 1-49h1v179h2l4 5 9 4 17 5 13 5 10 4 35 11 8 4 5 1-3-36-1-19-2-100-1-61v-346l1-75 1-44z" fill="#E3E5D5"/>
<path transform="translate(509,406)" d="m0 0 2 1 1 21v716l1 38 1 8h-3l-2-49-6-24-6-5-2 16-1 2-1 6v9l1 14v20h-1l-2-30-1-26v-91l1-553 2-5 1-9 1-3-1-6h-2l1-7 1-5h1l1-16 2-6 5-1 5 10 2 1v-7l-4-1-3-11-5 3h-3l-1-8h5l4 1z" fill="#F2FBEB"/>
<path transform="translate(445,418)" d="m0 0h4v2h2l-1 3-4 3 2 1v107l1 138v377l-1 38v63l1 15 1 3 6 2v2l15 6v1l-13 1v-3l-7-2-4-4-3 3-9-1-5-5v-97l-1-26-1-125v-204l2-254 1-26-3-1 3-7-6-2v-1l9-2 2-4h3l1 2z" fill="#F3FBEB"/>
<path transform="translate(562,389)" d="m0 0h1v48l1 4v91l-1 69v47l1-17 3-1 3 12 1 6v11l2 14 2 10 1 9 2 2 1-15 1-98 1-61 2-61h1v46l-2 113v440l2 74 2 70 3 12 1 2h-3l-3-6-1-5-2-56-1-55-1-6-1-53-1-19-2-3-4 5-4 2-3-1-1 51 2 49v11l1 4-1 14-1 59-2 1-5-1v-1h5v-57l-2-91v-506l1-117z" fill="#DAFBD0"/>
<path transform="translate(377,838)" d="m0 0 2 4 1 1 1 11v18l1 24v35l-1 7 1 27v16l1 8 1 25 1 31 2 34 2 7 2-6v-4h2l1 10v15h2l2 43 1 6 8 4 8 2 14 5 1-90h1v97l4 4 9 1 4-5 2 2 1 4 8 2-1 4 10-2-12-6v-2l-4-1-2-2 5 1 19 9 15 5 5 1-4 2-10-1 2 4 9 6 2 2-4-1-5-1v2l7 6 7 3-1-7 16 8 19 6 15 2 2 3 1 5 1 3h6l2 2 7 3-3 1-38-13-18-7-23-8-18-7-74-26-36-13-37-13-27-9-13-4-3-2-16-4-2-1-13-1h-10l-9 2-49 5-26 4-4-1 25-5 35-5 20-3 5-2h16l14 2 3 1h11l5 2v2l6-4-1-2-4-3-2-7h-2l-3-5 1-15 1-114 1-49h1v179h2l4 5 9 4 17 5 13 5 10 4 35 11 8 4 5 1-3-36-1-19-2-100-1-61v-59l1-30z" fill="#F9EFE3"/>
<path transform="translate(644,360)" d="m0 0h1l-1 13-1 22-1 91v630l2 69 1 17v32l-7-1-35-12-13-5-3-5-2-9-2-70-2-74v-440l2-113 3-133h3l-1 1-1 73v14l1 32v171l1 85v75l1 161 1 16v52l-1 26 1 104 1 27 1 4 21 9 5 1v2l6 1 17 6-3-44-1-35v-114l1-21v-593l1-37 1-17z" fill="#BC2F63"/>
<path transform="translate(644,366)" d="m0 0h1v96h2l1 6h2l1 13 7-1 4 6 2-4 2 2 2-3 2-9 1-57h1v89l-1 5v17l-2 18-1 3-1 36v38l-5 34-3 3v-2l-6-1-1 16-1 5-1 19-5 35-2 2-1 23h-1v-269l1-91 1-22z" fill="#E3FADC"/>
<path transform="translate(249,594)" d="m0 0 3 1 3 13 1 11 1 19v11l1 22v37l2 9v35l1 11v24l-1 3 2 6 1 114v34l-1 24-1 7v5l-3 4 2 4 1 7-2 6v11l-2 10v12l-2 16-2 7v14l3 10 3 6 2 8h3l6-21 2-40v-38l1-16 1-2 2-33h1v23l-2 84-1 5 1 4-1 5v20l-1 4v8l-3 6-2 2-9 1-1-2 10-2h-3l-7-1-16-7-2-3v-13l1-16 1-3 3-33 2-19 1-7v-21l1-3v-9l1-8-1-5 1-4v-11l1-9v-123l-1-14v-7l1-6-1-5v-44l-1-25z" fill="#F5FDED"/>
<path transform="translate(235,1122)" d="m0 0h10l13 1 12 4 8 2 9 3 20 7 38 13 28 10 24 9 27 9 42 15 21 8 64 23 24 8 40 14 25 9-4 1-23-8-8-3-9-3-20-6-9-4-7-3-17-5-18-6-9-4-20-7-10-3-12-5-31-10-17-6-26-9-11-4-5-3-16-5-11-4-14-5-8-4-13-3-9-2-9-4-17-6-22-4-18-4-7-2-5 2-42 3-1 2v-2l-5 1-1 3h-2v-3l-4 1h-6l-5 3v4l-3 1-1 5h-3v3l-1 1 9 4 8 3 16 8 12 5 6-1 8 4 15 6 9 4 8 3 14 7 9 4 7 2 9 4 5 3v3h6l6 4 10 2 1 3h5v2l2 1v2l5 1 10 4 18 8v2l8 1 14 7 8 3 1 1 7 1 4 3 5 2 5 3 7 3 9 3 7 3v2l9 3 10 4 7 2 10 6 10 3 2 2 7 2v2l10 2 1 2 10 2v2l7 2 4 3 16 5 2 2 7 2 12 6 7 3 10 4 7 3v2l9 2 3 2 7 2v2l13 3 8 2 1 2 7 3 9 4 4 2 7 2 18 8 3 2 7 2 3 2 6 2 4 2h5l3-1 4 4 6 2v2l14 5 6 1 4 2 5 2 1 3 6 1 5 3 5 1v2l11 2v2l7 2v-2l5 2 1 2 6 2 2 2 8 3 5 2 2-1 5 3 7 3 9 5 5 2 10 3 5 3 7 3 2 2 7 2 1 3 7 1 11 4 10 4 11 7 14 5 2 2 9 3 15 8 9 3 30 15 5 2 4 3 16 2 20-7 10-3 8-3 16-4 18-5 8-3h5l-3 2-38 12-35 11-7 3-11 1-10-3-22-10-12-4-15-7-25-11-14-7-60-27-18-8-41-18-15-6-11-5-29-12-31-13-28-12-36-15-30-13-26-11-42-18-32-14-56-24-25-11-15-6-11-5-65-27-42-18-30-13-39-17-65-30-14-7-3-3 9-3 21-4 33-4 38-4z" fill="#BE3264"/>
<path transform="translate(888,252)" d="m0 0h1v41l-1 72-1 26-2 23v31l-1 13 1 13h-2l-2-6-1-28-1-5v-16l-4 3-3-9-5-5-1-2-1-16-2-3-2-20-4 2-4 8-4-2v-12l1-3-2-12-1-2v-39l1-20 1-2 1-14h8l2 1h6l10-5 8-11 4 1z" fill="#FEFEFC"/>
<path transform="translate(580,373)" d="m0 0 5 1v8l-1-3-5 2-1 3 3 4 4-1v27l-2-1-1 14h2v32l-2 61-1 61-1 98-1 16-4-3-2-17-2-9-1-7v-12l-2-7-1-8-2 1-1 17-2-2v-63l1-53v-91l-1-5 1-37h3 2v-7l3-5-2-2 3-7z" fill="#F4FDED"/>
<path transform="translate(447,432)" d="m0 0h1v102l1 138v377h-1l-1-338-1 27-1 2-1 85-1 47-2 46-2 13h-2l-2-3-1-45v-15l1-17-1-13 1-58-1-11 1-9-1-6 1-2-1-42v-71l2-42 3-16 3-3 3-1 1-91z" fill="#E3F8DB"/>
<path transform="translate(774,297)" d="m0 0h1v972l-1 4 5 2-4 1-18-6-17-4-10-2v-2h4l-1-6 2-60h2l1 15 4-10 6-3 3-9h2l1 7 3 7 2 8v4h2l-2-8v-7l2-4 1-6 2 3h4l2 6 1 16 1-115 1-735z" fill="#FDF2E7"/>
<path transform="translate(668,341)" d="m0 0h4v74l-1 57-2 10-4 4-1-2-3 4-3-7-5 1-3-3v-11l-3 1-1-6-2-1v-86l1-16 2-8h2l2-4 4-3z" fill="#F5FDED"/>
<path transform="translate(994,289)" d="m0 0h1v661l-2 321h-1l-1-35-1-21-3-9-3 6-3-3-3-15-2-11-1-3-1 1-2 9-1 44-1 83h-1l-1-197v-224l2-4v2h2v81l1 133 2 31 5 19 3 5 3-3 3-8 1-20 1-3 1-49 1-134z" fill="#EFE4D6"/>
<path transform="translate(736,728)" d="m0 0h1l1 49v51l1 11v24l-1 1v7l5 9 1-4 2 1v6h2l1 6v11l2 13v10l-1 8 1 10v29l-1 28-2 34v17l-2 21-1 10-2 5v12l-3 14-1 22-2 1-1 34-1 63-1 24h-1v-41l1-85 1-37z" fill="#DAFDD2"/>
<path transform="translate(575,1012)" d="m0 0 2 1 1 3 1 19 1 53 1 6 1 55 2 56 3 10-8-2-4-4v-13l-1-13v-28l-1-7-2 6v16l-1 20-1 12v6l-4 2-7-2 4-1h1l1-59 1-16-1-2v-12l-2-48 1-47 1-4 5-1 5-5z" fill="#FDF3E8"/>
<path transform="translate(344,1234)" d="m0 0 5 1 32 13 13 6 17 7 26 11 13 6 12 5 30 13 53 23 19 8 28 12 1 3 5 1 3 2-1 5h-7l-20-7-10-7-17-4-16-7-12-5-15-6-28-12-13-5-17-9-12-4-16-8-14-6-12-5-25-12-16-6-8-6-1-4z" fill="#FCFBF8"/>
<path transform="translate(278,926)" d="m0 0h1v179h2l4 5 9 4 17 5 13 5 10 4 35 11 8 4 5 1-1-9v-12h1l1 11v13h-7l-13-5-10-4-9-2-11-3h-6v3l9 2 15 5 17 8 4 3-1 4h3l4 4 8 2 12 5 13 4 11 4v2l6 1 31 11 18 7-3 1-73-26-26-9-19-7-37-13-27-9-13-4-3-2-16-4-2-1-13-1h-10l-9 2-49 5-26 4-4-1 25-5 35-5 20-3 5-2h16l14 2 3 1h11l5 2v2l6-4-1-2-4-3-2-7h-2l-3-5 1-15 1-114z" fill="#D8C6B5"/>
<path transform="translate(429,953)" d="m0 0h1l1 57 1 25h2l1 10 3 21h2l2-15 1-16 1-40 2-26 1-7h1v188l1 15 1 3 6 2v2l15 6v1l-13 1v-3l-7-2-4-4-3 3-9-1-5-5v-97l-1-26z" fill="#F7EFE2"/>
<path transform="translate(133,1142)" d="m0 0h6l3 11 8 5 9 4 18 9 10 3 14 11 12 8 3 3-1 3-5 2 2 4 4 2 6 4 9 4 16 10 11 7 8 4 6 4 10 4 19 8 6 5 8 3 1 4-4-2-21-7-7-5-8-1-10-4-10-5-7-3-5-3-7-3-12-6-10-4-9-6-11-6-14-8-21-15-3-6-6-5-4-10-5-6-5-5-3-4z" fill="#F4FDED"/>
<path transform="translate(665,1034)" d="m0 0 4 1 1 13v45h1v45l-1 70v24l2 9 1 2-6-2-2-1v-11l-1-4v-10l2-20v-58l-2-9-1-18-2-3-4 1-3 5-2 7-2 15-1 12-1 5v42l-1 23h-1l-1-29-1-50v-53l1-3 2-10 2-9h2l1-6 4-2 7-19z" fill="#E3FCDE"/>
<path transform="translate(658,1106)" d="m0 0 4 1 2 3 1 20 2 7v58l-2 23v8l1 3v8l-2 4-3-4v-3l-1 5-14-1-5-2v-1h5l1-42v-41l2-12v-7l3-17 3-7z" fill="#F5FDEE"/>
<path transform="translate(382,383)" d="m0 0 15 2 42 11 11 3 9 3 3 5-5 5h-2v2l-10 3-11 2-16 6-14 4-6 1h-9l1-11 1-15h-2v2h-2l-1-7-2 1-3 16h-1l1-10 3-22z" fill="#9B0651"/>
<path transform="translate(384,399)" d="m0 0h2l1 7h2v-2h2v15l-2 11 15-2 20-6 13-5 18-3-1 3 5-1-1 3h2l1-4 5 1-5 4-10 7-2 5h-1v-5l-3-1 6-6h-2v-2l-5 2h-3l-1 2-1-3h-3v2l2 1-7 3-5 1 6 1-3 8 2 2-31 7-6 2-2 107-2-1-2-13-1-5-1-25v-63h-2v25l-1 11-2 6h-2v-19l-1-33 4-8h-2v-12l3-16z" fill="#F9F0E5"/>
<path transform="translate(582,459)" d="m0 0h1v24l-1 37-1 61-1 98-1 16-4-3-2-17-2-9-1-7v-12l-2-7-1-8-2 1-1 17-2-2v-63l1-52h1v17l5-1 4 18 1 2h3l1-2 1-13 2-74z" fill="#E3FDDE"/>
<path transform="translate(560,442)" d="m0 0h1v616l2 91v53l-1 4-7-1-9-4-14-4-16-6-3-2-1-7-1-38 1-609h1l1 632 1 18 3 3 15 6 21 7 5 2 1-6v-78l-1-35v-572z" fill="#BF3365"/>
<path transform="translate(644,360)" d="m0 0h1l-1 13-1 22-1 91v630l2 69 1 17v32l-7-1-9-3v-2l10 3 3 1-3-44-1-35v-114l1-21v-593l1-37 1-17z" fill="#BF3365"/>
<path transform="translate(279,685)" d="m0 0h1l1 235 1 76 1 20 1 42v45l5 5 9 3 40 12 3 2 14 4 6 4 12 5 7 3-3-37-2-106v-70h1l2 119 1 42 3 46v9l-8-1-10-5-24-7-15-5-11-5-15-5-10-3-6-4-2-4h-2z" fill="#BF3365"/>
<path transform="translate(830,255)" d="m0 0h5l-1 2 9 1-4 4-12 2-3 3 4-2 11-2h5l2 2-1 4-25 9-24 10-16 6-4 2-6-1 2-5 1-1-6 1-2 1v-3l-1-3 4-2 1-3 4-2 4-6 7-5 19-5 9-3z" fill="#F4FCEC"/>
<path transform="translate(377,838)" d="m0 0 2 4 1 1 1 11v18l1 24v35l-1 7 1 27v16l1 8 1 25 1 31 2 34 2 7 2-4 1 9-2 4 1 3h-2v2l-3-1-1-10-3-16-1-4 1-1-2-2-1-3-1-44-2-30-1-61v-59l1-30z" fill="#F1F7E7"/>
<path transform="translate(946,206)" d="m0 0 4 1 2 3-9 6 9-4 3-2h5v2l4 1v3l-29 12-30 14-10 5-3 1-1-6-10 3-4 2 2-5 5-5 10-3-4-3v-4l7-4 2-3 6-2 5-4 4-2 12-1z" fill="#F4FCEC"/>
<path transform="translate(673,340)" d="m0 0h1l1 64v42l-1 154v452l1 43 1 86 1 59 3 3 4 3-5-1-5-2-1-2-1-20v-626z" fill="#BF3365"/>
<path transform="translate(578,898)" d="m0 0h1l1 17v173h-1l-1-53-1-19-2-3-4 5-4 2-3-1v4h-2v-33l3-9h1l2-8 2-4 3-35 2-21 2-3z" fill="#E3FDDD"/>
<path transform="translate(440,1085)" d="m0 0h2l2 11 1 7 2 61 1 4-3 5-1 1-9-1-5-5 2-54 1-16 2-4 4-5z" fill="#FEFEFC"/>
<path transform="translate(575,1012)" d="m0 0 2 1 1 3 1 19v46h-1l-3-16-2-5-1 1-3 17-2 22v43l-1 6h-1v-17l-1-2v-12l-2-48 1-47 1-4 5-1 5-5z" fill="#F5FDED"/>
<path transform="translate(774,297)" d="m0 0h1v972l-1 4 5 2-4 1-5-2-1-3 3-2 1-5v-899z" fill="#D9CAB9"/>
<path transform="translate(1242,1085)" d="m0 0h1v41h4v-8h1v16l-1 11 2 5 1 11 1 26v27l2 48 2 11v6l-2-3-2-7-2-11-1-6-3 2-2 3-1-75z" fill="#F5FDED"/>
<path transform="translate(583,459)" d="m0 0h1v46l-2 113v440l2 74 2 70 3 12 1 2h-3l-3-6-1-5-2-56-1-55v-513l1-61z" fill="#D8C6B5"/>
<path transform="translate(714,303)" d="m0 0h5l1 4-5 1v2l-7 3 5-1 9-4h9v4l-2 4-21 7-35 14-6 2-5-5 4-5 11-4 9-4-17 5-3-4 4-3 3-3 1-2 14-4 8-2z" fill="#F4FCEC"/>
<path transform="translate(1244,1281)" d="m0 0h2l1 16 1 1h8l13 5v1l-8 2-4 2-1 2 5 2 8 5v2l-11-2h-9l-22 5h-5l2-6-3-2-2-6-6-2-11 1-15 2-4 1-2-2 33-7 28-8h2z" fill="#F4FCEC"/>
<path transform="translate(735,387)" d="m0 0h1l1 17v20l1 37 1 4v14l2 9 2 15v15h2v6h-2v8l-1 14-1 11-3 9 1 8v17l-1 5-1 4-1 58h-1z" fill="#E3FEDE"/>
<path transform="translate(490,1032)" d="m0 0h1v25h2v-7h1l2 8 1 3 2 16 3 14 7 9v36h-1l-5-19-6-5-2 16-1 2-1 6v9l1 14v20h-1l-2-30-1-26z" fill="#F8ECE1"/>
<path transform="translate(640,340)" d="m0 0h6l2 2-2 5-2 3-30 10-27 12-2 86h-1v-31h-2v-14l2-1 1-25-4 1-1 4-2-7-2 2 1-5 3-3h4l1-5h-2v-2l-5-1-1-4 9-7 9-3 9-4 11-4 14-7z" fill="#F4FCEC"/>
<path transform="translate(735,674)" d="m0 0h1v418l-1 37-1 85v48l-7-1-12-4 4-1 12 3 1-161 2-79z" fill="#BF3365"/>
<path transform="translate(968,430)" d="m0 0h1l1 40h1v25l1 12-1 5v11l1 23v16l1 57v91l-1 8h-3l-1-68z" fill="#F7EEE2"/>
<path transform="translate(490,592)" d="m0 0h1v531l2 42 1 18-8-1-19-7-17-8-2-2v-15h1l2 13 22 11 10 4h6l1-8-1-16v-129z" fill="#BF3365"/>
<path transform="translate(843,1106)" d="m0 0h1l1 40h2v-9h1l1 16 2 5h7l5-8 5-9 5-10 1-3 3 1-2 12-8 12-6 13-4 11-3-1v-2h-2l-2 15-3 25v20l-1 9h-1l-2-46z" fill="#FCF1E6"/>
<path transform="translate(1401,1396)" d="m0 0 2 1-8 4-11 4-15 8-10 5-3 3-17 6-6 4-9 3-13 2-9 3h-8v2l-9-1-3 4h-6l-6 5h-5l-2-3 4-3 7-2 8-4 20-5 9-2 25-10 25-9 9-4 14-7 15-3z" fill="#F5FEEE"/>
<path transform="translate(349,377)" d="m0 0 3 1-14 8-30 18-2 4 3 3-15 7-11 6-3 3-2 17h-1l-1-14-5 2-5 15-3 8-6 2 5-13 7-20 5-6 7-3 15-9 14-10 12-7 19-9z" fill="#F4FCEC"/>
<path transform="translate(394,437)" d="m0 0 7 2-1 5-6 2-2 107-2-1-2-13-1-5-1-25v-61l2-5 4-4h2z" fill="#FDFEFA"/>
<path transform="translate(335,1149)" d="m0 0 10 3 28 10 24 9 27 9 42 15 21 8 64 23 24 8 40 14 25 9-4 1-23-8-8-3-9-3-20-6-9-4-7-3-17-5-18-6-9-4-20-7-10-3-12-5-31-10-17-6-26-9-11-4-5-3-16-5-11-4-14-5-8-4z" fill="#BF3365"/>
<path transform="translate(653,1181)" d="m0 0 3 1 2 7v10l2 9 1 26-1 5-14-1-5-2v-1h5l1-41 2-2 2-8z" fill="#FDF3E8"/>
<path transform="translate(985,217)" d="m0 0h5l4 3 3 3h-2v63h-1l-1-8-1 2h-2l1 4 2 4v8l-2 4-3 1-1-5v-21l-1-30-3-25z" fill="#F9EEE2"/>
<path transform="translate(887,784)" d="m0 0h1l1 412 1 90 1 19 4 6-1 3-4-2-2-6-1-107z" fill="#BF3365"/>
<path transform="translate(272,629)" d="m0 0 4 1v24l1 11 1 1v12h-2v14h2v15l-2 7v7h2v8h-2l-1 6-1 2h-2l-1-15-1-23v-34l1-13v-21z" fill="#FFFFFD"/>
<path transform="translate(1243,861)" d="m0 0h2l1 18v40l-2 10v28l1 13 1 3 1 15-2 10 1 8 2 9v17l-1-2h-3l-1 11h-1v-176z" fill="#F5FDED"/>
<path transform="translate(641,954)" d="m0 0h1l3 184 1 50 1 29v19l-6-1 4-1-1-32-2-46-1-40z" fill="#D8C6B5"/>
<path transform="translate(492,410)" d="m0 0 3 2v4l9-4 3 12 3 1v7l-4-2-3-8h-5l-1 6-1 17-2 4-2 7h2l2 7-1 2-1 9-2 5-1 113h-1v-170z" fill="#F4EADE"/>
<path transform="translate(994,950)" d="m0 0h1v268h1v64h-1l-1 53h-1v-238z" fill="#BF3365"/>
<path transform="translate(497,1198)" d="m0 0 16 8 19 6 15 2 2 3 1 5 1 3h6l2 2 7 3-3 1-38-13-18-7-23-8-4-3h7l11 5z" fill="#F4EBDF"/>
<path transform="translate(326,1132)" d="m0 0h7l13 4 10 2 20 8-1 2-6-2h-5l1 3 9 2 13 5 3 6 15 7 4 2-3 1-16-5-6-3-8-2-2-4h-3v-4l-17-9-7-3-9-2-11-4z" fill="#E4E8D9"/>
<path transform="translate(409,1259)" d="m0 0 18 6 7 3v2l9 3 10 4 7 2 10 6 10 3 2 2 7 2v2l10 2 1 2 10 2v2l7 2 4 3 16 5 2 2 7 2 12 6 7 3 10 4 7 3v2l9 2 3 2 7 2v2l3 1-3 1-25-11-26-11-28-12-25-11-56-24-25-11-7-3z" fill="#BF3365"/>
<path transform="translate(560,934)" d="m0 0h1l1 89h1v47l2 49v11l1 4-1 14-1 59-2 1-5-1v-1h5v-57l-2-91z" fill="#E1DBC9"/>
<path transform="translate(735,387)" d="m0 0h1l1 17v20l1 37 1 4v13h-2v75l-1 105h-1z" fill="#DCDFC6"/>
<path transform="translate(1242,481)" d="m0 0h1l1 40v36l1 7 1 29v22l1 7v24l-2-2-2-5-1-18-1-89v-26z" fill="#F5FDED"/>
<path transform="translate(1221,1299)" d="m0 0 4 1 6 3v8h9l14-3v2l-11 6 1 2-17 4h-5l2-6-3-2-2-6-6-2-11 1-15 2-4 1-2-2 33-7z" fill="#FBF1E6"/>
<path transform="translate(378,562)" d="m0 0 2 3 1 9v13l1 5v49l-2 15h-2l-1 2v-88z" fill="#F4FDED"/>
<path transform="translate(671,1025)" d="m0 0h1l1 196 1 22 11 3v1h-8v-2l-4-1-3-5-1-7v-35l1-59z" fill="#D8C7B6"/>
<path transform="translate(736,1021)" d="m0 0h1l1 61v17l-2 69-1 63-1 24h-1v-41l1-85 1-37z" fill="#D8C6B5"/>
<path transform="translate(382,383)" d="m0 0 15 2 15 4-2 2-11-1-4 2-1 21-3 14 6 1 10-1-3 2-6 1h-9l1-11 1-15h-2v2h-2l-1-7-2 1-3 16h-1l1-10 3-22z" fill="#BF3365"/>
<path transform="translate(774,1022)" d="m0 0h1l1 144 1 40v67l2 2-5-1-1-3 1-2z" fill="#BF3365"/>
<path transform="translate(669,1139)" d="m0 0h1v93l2 9 1 2-6-2-2-1v-11l-1-4v-10l2-20v-17h2v-13z" fill="#E4E8D9"/>
<path transform="translate(274,1101)" d="m0 0 2 3 2 5h2l1 4 2 1-1 2 6 2v4l-5 3-4-1v-2h-14l-7-2-12-1h-14l-5 2-4-1 7-3 12-1 24 2v-2l4-3h2v-2h2l-1-7z" fill="#E4E8D9"/>
<path transform="translate(632,335)" d="m0 0 3 1 3 2-10 3-12 6-4 3-14 4-8 3h-5l4-2-1-3 8-3 3-2 2-3 12-4 10-4 3 1z" fill="#F5FDED"/>
<path transform="translate(772,1100)" d="m0 0h1l1 92v74l-3 5-1 2-5-1-1-3h5l2-12z" fill="#E4E8D9"/>
<path transform="translate(395,981)" d="m0 0h1l3 122 2 38 1 8 5 2 1 2-6-2-3-3-1-7-2-45-1-67z" fill="#BF3365"/>
<path transform="translate(304,1222)" d="m0 0h14l19 8 1 4-3 3-15-3-10-6-6-5z" fill="#FCFBF7"/>
<path transform="translate(445,418)" d="m0 0h4v2h2l-1 3-4 3-1 4h-5v2l3 1-5 1-2 4-3 2-2-1v-3l-3-1 3-7-6-2v-1l9-2 2-4h3l1 2z" fill="#FEFEFC"/>
<path transform="translate(268,1203)" d="m0 0 5 1 1 2 8 2v2l10 1 5 2v3l2 1-1 3-4 1-10-3-17-9-2-3 3-1z" fill="#FEFDFA"/>
<path transform="translate(379,416)" d="m0 0h1v12l3-1-2 4-2 5-1 27-1 44-1 75h-1v-96l2-51z" fill="#BF3365"/>
<path transform="translate(384,399)" d="m0 0h2l1 7h2v-2h2v7l-2 1-2 8-1 2v10l-3 2h-3l-1 2 1-5 2-3h-2v-12l3-16z" fill="#D9C8B7"/>
<path transform="translate(540,376)" d="m0 0 2 1-8 4-12 4-18 8-5 4-2 1-19 2h-6l-5-5 16 1 18-5 10-5z" fill="#F5FEEE"/>
<path transform="translate(604,1347)" d="m0 0 5 1 2 5 7 1 10 2 3 2 6 1-1 4-5 1-9-1-12-7-8-6z" fill="#FEFEFC"/>
<path transform="translate(647,1219)" d="m0 0h1v7l3-1 3 3 3-2 2-5h1l1 13-1 5-14-1-5-2v-1h5z" fill="#FBF1E6"/>
<path transform="translate(580,1094)" d="m0 0h1l1 55 2 56 3 10-4-2-2-4-1-53z" fill="#E4E8D9"/>
<path transform="translate(654,1203)" d="m0 0 3 3 2 15-2 6-3 2-5-3 1-13z" fill="#FEFEFC"/>
<path transform="translate(978,225)" d="m0 0 3 1 1 2v25l-2 5-3-3-1-2v-17l1-10z" fill="#FEF3E8"/>
<path transform="translate(887,1196)" d="m0 0h2l1 90 1 19 4 6-1 3-4-2-2-6z" fill="#BF3365"/>
<path transform="translate(1083,1484)" d="m0 0h5l-3 2-38 12-35 11-2-1 4-3 19-6 8-3 16-4 18-5z" fill="#BF3365"/>
<path transform="translate(1242,419)" d="m0 0h1l1 7 3-1-1 9v19l-1 27h-1l-2-13z" fill="#F5FEEE"/>
<path transform="translate(939,1497)" d="m0 0 9 1 5 3 11 4 5 4v2l-9-1-16-6-6-4z" fill="#FFFFFD"/>
<path transform="translate(630,345)" d="m0 0h9l2 4v2l-20 6v-2h-3l1-4 4-3z" fill="#FBF1E5"/>
<path transform="translate(271,514)" d="m0 0h1l1 10v40l-2 4-1-2-1-27v-20z" fill="#FFFFFD"/>
<path transform="translate(1249,294)" d="m0 0 2 3v7l-1 7 1 13v37l-1 11h-1l-1-47-1-3 1-24z" fill="#F5FEEE"/>
<path transform="translate(896,1344)" d="m0 0h8l13 4 10 3 10 5 9 4 3 1v2l-11-3-42-15z" fill="#F5EADE"/>
<path transform="translate(509,406)" d="m0 0h1v19l-4-1-3-11-5 3h-3l-1-8h5l4 1z" fill="#FEFEFC"/>
<path transform="translate(278,642)" d="m0 0h1v85h-1v-6h-2l-1-7 2-7 1-15h-2l-1-9 1-5h2z" fill="#F5FEEE"/>
<path transform="translate(383,449)" d="m0 0h1v22l-1 11-2 6h-2v-27l1-7z" fill="#F5FDEE"/>
<path transform="translate(1242,481)" d="m0 0h1l1 40v35l-2 1-1-25v-26z" fill="#F6FBEC"/>
<path transform="translate(453,414)" d="m0 0 2 1-1 2 5-1-1 3h2l1-4 5 1-5 4-10 7-2 5h-1v-5l-3-1 6-6h-2v-2l-5 2h-3v-2l-4-1z" fill="#EEF1E1"/>
<path transform="translate(380,1060)" d="m0 0h2l2 6 1 8 2 5 2 7 2-4 1 9-2 4 1 3h-2v2l-3-1-1-10-3-16-1-4 1-1-2-2z" fill="#F5FEEF"/>
<path transform="translate(1058,237)" d="m0 0 20 4 13 6 1 3-16-4-21-6 3-1z" fill="#F8F4E6"/>
<path transform="translate(480,1200)" d="m0 0h7l11 5 1-3 12 5 6 4-2 2-6-1-25-9z" fill="#EDF0E1"/>
<path transform="translate(388,606)" d="m0 0 2 2v29l-2 3-2-1-1-20 1-11h2z" fill="#F5FEEE"/>
<path transform="translate(995,1257)" d="m0 0h1v25h-1l-1 53h-1v-77z" fill="#BF3365"/>
<path transform="translate(737,1118)" d="m0 0h1v55l-2 23h-1v-28l1-34z" fill="#E4E8D9"/>
<path transform="translate(562,1115)" d="m0 0h1l1 30v62l-2 1-5-1v-1h5z" fill="#D8C6B5"/>
<path transform="translate(994,222)" d="m0 0 43 12 11 3v1l-8-1-22-5-15-4-7-2-2 4z" fill="#BF3365"/>
<path transform="translate(585,387)" d="m0 0h1v33l-1 38h-1v-31h-2v-14l2-1z" fill="#E4D7C8"/>
<path transform="translate(448,1167)" d="m0 0 5 2 3 1v2l15 6v1l-13 1v-3l-7-2-3-2z" fill="#F3FBEB"/>
<path transform="translate(387,512)" d="m0 0h1l1 10 2 9 1 4v18l-2-1-2-13-1-5z" fill="#F5FEEE"/>
<path transform="translate(409,1172)" d="m0 0 6 1 12 4 9 4 16 6 18 7-3 1-45-16v-2l-9-2z" fill="#E4E8D9"/>
<path transform="translate(384,399)" d="m0 0h2l1 7h2v-2h2v7l-2 1-1 6-4 1v-9h-2l1-10z" fill="#D3ABA6"/>
<path transform="translate(973,1511)" d="m0 0 11 1 3 3 6 3-2 2-10-1-6-3-3-4z" fill="#FFFFFD"/>
<path transform="translate(298,397)" d="m0 0h2l-2 5-10 7-6 3h-5v-2l16-10z" fill="#F5FEEE"/>
<path transform="translate(671,337)" d="m0 0 2 2v45h-1l-1-42-10 2-6 2-4-1 9-4z" fill="#E3E6D6"/>
<path transform="translate(423,427)" d="m0 0h9l-3 5-10 2-2-1-7 1v-4z" fill="#E4E8D9"/>
<path transform="translate(1157,266)" d="m0 0 7 1 7 2 9 2 8 4v1l-10-1-24-7z" fill="#F2F6E7"/>
<path transform="translate(995,1218)" d="m0 0h1v39l-3 1v-25h2z" fill="#BB2E62"/>
<path transform="translate(456,422)" d="m0 0h2l-1 4-4 2-3 5-1 55h-1v-56l3-6z" fill="#BF3365"/>
<path transform="translate(988,282)" d="m0 0 4 3 1 3v8l-2 4-3 1-1-5v-9z" fill="#FEF3E8"/>
<path transform="translate(970,470)" d="m0 0h1v25l1 12-2 16h-1v-51z" fill="#FEF3E8"/>
<path transform="translate(584,372)" d="m0 0h2v15l-5 1-1 4-2-7-2 2 1-5 3-3h4l1-5-2-1z" fill="#F7EFE3"/>
<path transform="translate(1008,217)" d="m0 0h8l12 6v1h-11l-8-4z" fill="#FEF3E8"/>
<path transform="translate(389,411)" d="m0 0h2v8l-2 11h7v1h-8l-3-2v-7l2-4z" fill="#F1E6D9"/>
<path transform="translate(993,249)" d="m0 0h1l1 40-1 7h-1l-2-11-2-3 1-2h2z" fill="#F3FEEC"/>
<path transform="translate(523,1194)" d="m0 0 9 2 19 6 6 3-4 1-9-3-6-1-2-2-12-4z" fill="#E1DACA"/>
<path transform="translate(888,1286)" d="m0 0h2l1 19 4 6-1 3-4-2-2-6z" fill="#BD3164"/>
<path transform="translate(846,333)" d="m0 0h1l1 10 2 5 1 10-2 2v-3h-2l-1 4z" fill="#F0E9DC"/>
<path transform="translate(1407,1355)" d="m0 0 2 1 1 6-10-1-8-3-1-2 11 1z" fill="#F4F8E8"/>
<path transform="translate(602,357)" d="m0 0h6l1 2-1 2 2 1-8 3v-2l-4 1-2-3z" fill="#FCF0E5"/>
<path transform="translate(434,418)" d="m0 0h7l-1 4-1-3h-3v2l2 1-7 3h-6l-1-3z" fill="#FBEFE4"/>
<path transform="translate(979,234)" d="m0 0 2 2v17h-3l-1-2v-11z" fill="#F5FEEE"/>
<path transform="translate(1242,419)" d="m0 0h1l1 7 3-1-1 9-2 7h-2z" fill="#F6FCED"/>
<path transform="translate(646,1259)" d="m0 0 10 1 14 5 9 3 2 2-7-1-28-9z" fill="#DDD5C5"/>
<path transform="translate(615,1248)" d="m0 0 11 2 20 7v2l-9-2-22-8z" fill="#DDD5C5"/>
<path transform="translate(844,1212)" d="m0 0 3 3v19l-1 9h-1z" fill="#EFE3D5"/>
<path transform="translate(1247,1089)" d="m0 0 2 4-2 23-2-4-1-8 1-7z" fill="#F5FEEE"/>
<path transform="translate(580,1236)" d="m0 0 8 1 24 8 3 3-5-1-30-10z" fill="#DDD5C4"/>
<path transform="translate(403,1155)" d="m0 0h7l1 2 6 2 5 3v2l-3 1v-2h-6l-4-4-5-2z" fill="#F5FCEC"/>
<path transform="translate(383,449)" d="m0 0h1v11l-1 8h-3l-1-7 1-7z" fill="#FEFEFB"/>
<path transform="translate(736,1290)" d="m0 0 10 2 28 9-4 1-9-3-7-2-16-5z" fill="#BF3365"/>
<path transform="translate(394,437)" d="m0 0 7 2-1 5-8 1-1-5 3-1z" fill="#FBF8F4"/>
<path transform="translate(626,341)" d="m0 0m-3 1h3v2l-15 8-10 3-3-1 2-2 14-4z" fill="#FEF3E8"/>
<path transform="translate(969,1317)" d="m0 0h1l1 24-4-1 2-2-4-1v-5h2l1-2z" fill="#BF3365"/>
<path transform="translate(887,365)" d="m0 0h1v36l-2 3-1-4 1-9z" fill="#F5FEEE"/>
<path transform="translate(450,1167)" d="m0 0 5 1 19 9v1h-6l-12-6v-2l-4-1z" fill="#DCD3C3"/>
<path transform="translate(583,391)" d="m0 0 2 1v22l-2-2-1-13-1-5z" fill="#FAF7EA"/>
<path transform="translate(830,1321)" d="m0 0 10 1 6 3 8 3v2l-11-3-13-5z" fill="#F0E4D7"/>
<path transform="translate(412,389)" d="m0 0h11l10 3 2 2-4 1-19-5z" fill="#F1F0E1"/>
<path transform="translate(400,384)" d="m0 0 11 1 9 4-3 1-16-3z" fill="#F3F6E7"/>
<path transform="translate(410,1155)" d="m0 0 5 1 14 5v-6h1v7h-10l-4-3-6-2z" fill="#DFD3C3"/>
<path transform="translate(399,1156)" d="m0 0 4 1 2 2 5 1 1 3-3 1-9-3z" fill="#E4E8D9"/>
<path transform="translate(480,1200)" d="m0 0h7l11 5v2l-9-2-9-4z" fill="#DDD5C5"/>
<path transform="translate(380,1060)" d="m0 0h2l2 6 1 16-2-4-2-9 1-1-2-2z" fill="#FFFFFD"/>
<path transform="translate(618,1351)" d="m0 0 9 3 9 4v1l-7-1-3-2-10-2z" fill="#F5EBDE"/>
<path transform="translate(1200,1304)" d="m0 0h5l-3 3-15 2-4 1-2-2z" fill="#EFEBDC"/>
<path transform="translate(619,1247)" d="m0 0h7l8 3v2l2 1-7-1-11-3z" fill="#FBF6EB"/>
<path transform="translate(510,1179)" d="m0 0h1v11l8 1 4 3h-5l-9-3-1-4z" fill="#EFE8DA"/>
<path transform="translate(475,406)" d="m0 0h7l1 4h-2l-1 2-6-1z" fill="#FEFEFC"/>
<path transform="translate(1042,233)" d="m0 0h7l5 4-1 2-12-3z" fill="#F6ECE0"/>
<path transform="translate(590,1216)" d="m0 0 5 1 13 5v1h-9l-3-2v-2h-4v-2z" fill="#E3DDCD"/>
<path transform="translate(277,905)" d="m0 0h1l1 21-1 7-2-1v-12z" fill="#F5FDED"/>
<path transform="translate(453,414)" d="m0 0 2 1-2 4h-8l-4 1v-2l-4-1z" fill="#F3E7DA"/>
<path transform="translate(839,261)" d="m0 0m-7 1h7v2l-13 3-5 1 4-4z" fill="#FEF3E8"/>
<path transform="translate(564,390)" d="m0 0 1 2 4 1-1 6-3 1-2-1v-8z" fill="#F9F8EA"/>
<path transform="translate(932,1327)" d="m0 0 10 1 14 7-3 1-15-6-6-2z" fill="#BF3365"/>
<path transform="translate(270,1202)" d="m0 0 6 2 14 6-4 1-4-1v-2l-8-1-1-3-3-1z" fill="#EEE4D6"/>
<path transform="translate(519,1213)" d="m0 0h6l9 3 4 4-10-2-9-4z" fill="#F5FCEE"/>
<path transform="translate(611,1348)" d="m0 0 7 2-1 3-6 1-2-2z" fill="#F8EFE3"/>
<path transform="translate(1058,237)" d="m0 0 6 1v2l5 1v2l-7-1-7-2 3-1z" fill="#F3EFE1"/>
<path transform="translate(553,373)" d="m0 0h9v4h-3l-10-2z" fill="#F5FEEE"/>
<path transform="translate(1110,248)" d="m0 0h7l7 4-2 1-9-2z" fill="#FEF3E8"/>
<path transform="translate(452,1185)" d="m0 0 4 1 3 2 7 2v2l2 1-6-1-8-4z" fill="#FDFEF8"/>
<path transform="translate(1157,266)" d="m0 0 7 1 3 2v2l-13-3z" fill="#F4F0E2"/>
<path transform="translate(442,1074)" d="m0 0 3 1 1 4-5 5v-7z" fill="#FFFFFD"/>
<path transform="translate(664,340)" d="m0 0 3 1-9 4-7 1 4-3z" fill="#E1E1D1"/>
<path transform="translate(1083,244)" d="m0 0 8 3 1 3-13-3 4-1z" fill="#F3EADD"/>
<path transform="translate(277,707)" d="m0 0h1v14h-2l-1-7z" fill="#FEF3E8"/>
<path transform="translate(276,678)" d="m0 0h2v14h-2l-1-9z" fill="#FEF3E8"/>
<path transform="translate(774,1266)" d="m0 0 1 3-1 4 5 2-4 1-5-2-1-3z" fill="#DACCBB"/>
<path transform="translate(663,348)" d="m0 0 2 2v8l-2 3-1-12z" fill="#FEF3E8"/>
<path transform="translate(958,207)" d="m0 0 9 1 1 5-3 1-2-6h-5z" fill="#F5FEEE"/>
<path transform="translate(849,1287)" d="m0 0 2 4 1 7-1 2h-5l3-1z" fill="#FDF3E8"/>
<path transform="translate(481,1180)" d="m0 0 13 3-4 2-9-2z" fill="#ECE0D2"/>
<path transform="translate(494,1172)" d="m0 0h1l1 14h-5v-2h3z" fill="#FCF4E8"/>
<path transform="translate(1022,228)" d="m0 0 10 2-1 3-12-3z" fill="#F0E4D6"/>
<path transform="translate(1006,224)" d="m0 0 9 1 2 4-13-3z" fill="#F0E3D6"/>
</svg>
